<?xml version="1.0" standalone="no"?>
<!DOCTYPE svg PUBLIC "-//W3C//DTD SVG 20010904//EN"
 "http://www.w3.org/TR/2001/REC-SVG-20010904/DTD/svg10.dtd">
<svg version="1.0" xmlns="http://www.w3.org/2000/svg"
 width="512.000000pt" height="512.000000pt" viewBox="0 0 512.000000 512.000000"
 preserveAspectRatio="xMidYMid meet">
<metadata>
Created by potrace 1.16, written by Peter Selinger 2001-2019
</metadata>
<g transform="translate(0.000000,512.000000) scale(0.100000,-0.100000)"
fill="#000000" stroke="none">
<path d="M1320 5067 c-659 -403 -1108 -1036 -1265 -1780 -72 -342 -74 -765 -5
-1102 83 -407 246 -767 497 -1104 115 -153 382 -420 533 -532 409 -304 841
-477 1330 -534 160 -19 470 -19 631 0 840 98 1592 583 2027 1306 42 70 52 95
52 132 0 56 -27 92 -80 108 -37 11 -44 9 -197 -63 -286 -136 -511 -204 -799
-243 -160 -22 -470 -22 -629 0 -1135 154 -2011 1031 -2161 2165 -19 148 -22
428 -5 580 33 294 110 554 248 840 83 172 87 198 33 252 -24 23 -37 28 -77 28
-40 -1 -62 -9 -133 -53z"/>
</g>
</svg>
